#N canvas 0 0 450 300 10;
#X obj 106 64 inlet;
#X obj 175 71 inlet;
#X floatatom 106 122 5 0 0 0 - - -;
#X floatatom 175 122 5 0 0 0 - - -;
#X obj 114 191 outlet;
#X obj 177 194 outlet;
#X connect 0 0 2 0;
#X connect 1 0 3 0;
#X connect 2 0 4 0;
#X connect 3 0 5 0;
#X coords 0 -1 1 1 120 60 1 100 100;
