#N canvas 0 0 450 300 10;
#X text 119 18 Aula 4;
#N canvas 0 0 450 300 encapsulamento 0;
#X text 33 74 ESTE E UM PATCH ENCAPSULADO!!;
#N canvas 0 0 450 300 inlets 0;
#X obj 54 56 inlet;
#X floatatom 54 110 5 0 0 0 - - -;
#X obj 54 162 outlet;
#X connect 0 0 1 0;
#X connect 1 0 2 0;
#X restore 34 157 pd inlets outlets;
#X floatatom 34 131 5 0 0 0 - - -;
#X floatatom 34 197 5 0 0 0 - - -;
#X connect 1 0 3 0;
#X connect 2 0 1 0;
#X restore 28 76 pd encapsulamento;
#N canvas 150 25 423 311 abstracoes 0;
#X obj 114 60 abstra1;
#X floatatom 101 19 5 0 0 0 - - -;
#X floatatom 158 17 5 0 0 0 - - -;
#X floatatom 96 106 5 0 0 0 - - -;
#X floatatom 168 106 5 0 0 0 - - -;
#X connect 0 0 3 0;
#X connect 0 1 4 0;
#X connect 1 0 0 0;
#X connect 2 0 0 1;
#X restore 27 128 pd abstracoes;
#N canvas 208 115 450 300 atividade 0;
#X text 32 61 Aprimorar os patchs feitos na aula de ontem e;
#X text 30 82 transforma-los em abstracoes e/ou subpatchs;
#X text 30 101 e controla-los em um patch que sera nossa interface
de;
#X text 31 121 performance.;
#X restore 32 181 pd atividade;
#N canvas 324 63 450 300 abstracoes 0;
#X obj 38 92 abstra2;
#X floatatom 38 200 5 0 0 0 - - -;
#X floatatom 151 198 5 0 0 0 - - -;
#X connect 0 0 1 0;
#X connect 0 1 2 0;
#X restore 156 129 pd abstracoes gui;
