#N canvas 611 68 491 435 10;
#N canvas 200 25 669 467 sintese 0;
#X obj 3 233 +~;
#X obj 4 125 +~;
#X obj 97 128 +~;
#X obj 204 129 +~;
#X obj 4 202 +~;
#X obj 132 236 line~;
#X obj 5 276 *~;
#X msg 132 200 0.6 \, 0 100;
#X obj 96 58 osc~ 660;
#X obj 112 93 osc~ 660.33;
#X obj 5 60 osc~ 498;
#X obj 20 87 osc~ 498.2;
#X obj 203 67 osc~ 789;
#X obj 220 89 osc~ 789.25;
#X obj 5 347 dac~;
#X obj 5 307 *~ 0.2;
#X obj 364 221 +~;
#X obj 461 237 line~;
#X obj 366 264 *~;
#X obj 405 94 osc~ 660;
#X obj 413 122 osc~ 660.33;
#X obj 364 42 osc~ 498;
#X obj 381 68 osc~ 498.2;
#X obj 429 145 osc~ 789;
#X obj 433 170 osc~ 789.25;
#X obj 366 335 dac~;
#X obj 366 295 *~ 0.2;
#X text 139 11 Sintese aditiva - 2 maneiras de escrever a mesma coisa
;
#X msg 523 166 1 \, 0.2 1000;
#X msg 525 189 0.6 \, 0 100;
#X msg 526 214 0 \, 0.7 10000;
#X text 301 374 Atividade: Variem os valores de frequencia;
#X text 301 399 dos osciladores e tentem diferentes tipos;
#X text 301 418 de envelopes (line~).;
#X msg 528 241 0;
#X text 560 243 para o audio;
#X text 540 261 desse gerador;
#X connect 0 0 6 0;
#X connect 1 0 4 0;
#X connect 2 0 4 1;
#X connect 3 0 0 1;
#X connect 4 0 0 0;
#X connect 5 0 6 1;
#X connect 6 0 15 0;
#X connect 7 0 5 0;
#X connect 8 0 2 0;
#X connect 9 0 2 1;
#X connect 10 0 1 0;
#X connect 11 0 1 1;
#X connect 12 0 3 0;
#X connect 13 0 3 1;
#X connect 15 0 14 0;
#X connect 16 0 18 0;
#X connect 17 0 18 1;
#X connect 18 0 26 0;
#X connect 19 0 16 0;
#X connect 20 0 16 1;
#X connect 21 0 16 0;
#X connect 22 0 16 1;
#X connect 23 0 16 0;
#X connect 24 0 16 1;
#X connect 26 0 25 0;
#X connect 28 0 17 0;
#X connect 29 0 17 0;
#X connect 30 0 17 0;
#X connect 34 0 17 0;
#X restore 22 72 pd sintese aditiva;
#N canvas 0 0 795 646 sintese 0;
#X obj 89 490 *~;
#X obj 89 574 dac~;
#X obj 88 524 *~ 0.2;
#X obj 89 109 mtof;
#X obj 90 215 *~;
#X floatatom 109 189 5 0 0 2 amplitude_do_vibrato - -;
#X floatatom 89 80 5 0 0 2 frequência_da_moduladora - -;
#X obj 90 289 +~;
#X obj 90 358 osc~;
#X obj 89 137 osc~;
#X floatatom 109 262 5 0 0 2 frequência_da_portadora - -;
#N canvas 0 22 450 300 (subpatch) 0;
#X array sinusoide4 2000 float 0;
#X coords 0 1 1999 -1 200 140 1;
#X restore 342 466 graph;
#X obj 343 360 tgl 24 0 empty empty empty 0 -6 0 8 -241291 -1 -1 0
1;
#X obj 343 392 metro 110;
#X obj 317 365 bng 15 250 50 0 empty empty empty 0 -6 0 8 -241291 -1
-1;
#X obj 343 424 tabwrite~ sinusoide4;
#X obj 336 33 loadbang;
#X obj 336 92 unpack f f f;
#X msg 336 63 2 93 100;
#X text 415 61 preset;
#X obj 492 192 vline~;
#X obj 492 59 key;
#X floatatom 492 92 5 0 0 0 - - -;
#X obj 492 118 select 98;
#X msg 492 154 1 5 0 \, 0 400 5000;
#X connect 0 0 2 0;
#X connect 2 0 1 0;
#X connect 2 0 1 1;
#X connect 3 0 9 0;
#X connect 4 0 7 0;
#X connect 5 0 4 1;
#X connect 6 0 3 0;
#X connect 7 0 8 0;
#X connect 8 0 0 0;
#X connect 8 0 15 0;
#X connect 9 0 4 0;
#X connect 10 0 7 1;
#X connect 12 0 13 0;
#X connect 13 0 15 0;
#X connect 14 0 15 0;
#X connect 16 0 18 0;
#X connect 17 0 6 0;
#X connect 17 1 5 0;
#X connect 17 2 10 0;
#X connect 18 0 17 0;
#X connect 20 0 0 1;
#X connect 21 0 22 0;
#X connect 22 0 23 0;
#X connect 23 0 24 0;
#X connect 24 0 20 0;
#X coords 0 0 1 1 85 60 0;
#X restore 24 124 pd sintese fm;
#N canvas 120 87 620 565 sintese 0;
#X text 105 11 Amplitude modulada;
#X obj 52 459 *~;
#X obj 52 491 dac~;
#X obj 50 191 mtof;
#X obj 51 296 *~;
#X floatatom 125 204 5 0 0 2 frequência_da_moduladora - -;
#X floatatom 50 162 5 0 0 2 oscilador_principal - -;
#X obj 50 219 osc~;
#N canvas 0 22 450 300 (subpatch) 0;
#X array sinusoide5 2000 float 0;
#X coords 0 1 1999 -1 200 140 1;
#X restore 312 370 graph;
#X obj 313 268 tgl 24 0 empty empty empty 0 -6 0 8 -241291 -1 -1 0
1;
#X obj 313 298 metro 110;
#X obj 50 36 loadbang;
#X text 101 65 preset;
#X obj 313 330 tabwrite~ sinusoide5;
#X obj 125 229 mtof;
#X obj 125 257 osc~;
#X obj 50 95 unpack f f;
#X obj 281 273 bng 15 250 50 0 empty empty empty 0 -6 0 8 -241291 -1
-1;
#X msg 50 66 20 68;
#X obj 71 389 vsl 15 60 0 1 0 0 empty empty volume(0-1) 0 -8 0 8 -258699
-1 -1 0 1;
#X connect 1 0 2 0;
#X connect 1 0 2 1;
#X connect 3 0 7 0;
#X connect 4 0 1 0;
#X connect 4 0 13 0;
#X connect 5 0 14 0;
#X connect 6 0 3 0;
#X connect 7 0 4 0;
#X connect 9 0 10 0;
#X connect 10 0 13 0;
#X connect 11 0 18 0;
#X connect 14 0 15 0;
#X connect 15 0 4 1;
#X connect 16 0 6 0;
#X connect 16 1 5 0;
#X connect 17 0 13 0;
#X connect 18 0 16 0;
#X connect 19 0 1 1;
#X restore 27 172 pd sintese am;
#X text 130 26 Aula 3;
#N canvas 0 0 1121 662 amostragem 0;
#N canvas 0 0 450 300 (subpatch) 0;
#X array sample 441000 float 2;
#X coords 0 1 441000 -1 200 140 1;
#X restore 23 11 graph;
#X obj 439 158 tabwrite~ sample;
#X msg 435 11 bang;
#X msg 443 38 stop;
#X msg 454 64 set sample;
#X obj 462 101 adc~;
#X obj 553 416 hip~ 5;
#X obj 553 472 dac~;
#X obj 721 357 tgl 15 0 empty empty empty 17 7 0 10 -262144 -1 -1 0
1;
#X obj 553 339 bng 15 250 50 0 empty empty empty 17 7 0 10 -262144
-1 -1;
#X obj 684 381 spigot;
#X obj 553 444 *~;
#X text 438 190 GRAVADOR;
#X text 549 500 LOOP SIMPLES;
#X text 700 435 volume do sample;
#X obj 553 383 tabplay~ sample;
#X obj 553 310 bng 15 250 50 0 empty empty empty 17 7 0 10 -262144
-1 -1;
#X msg 599 280 set sample;
#X obj 686 409 hsl 128 15 0 1 0 0 empty empty empty -2 -8 0 10 -262144
-1 -1 0 1;
#X msg 588 252 set caixa;
#X text 667 248 mensagem "set" permite alternar entre arrays;
#X obj 20 358 openpanel;
#X obj 20 417 soundfiler;
#X floatatom 20 445 0 0 0 0 - - -;
#N canvas 0 0 450 300 (subpatch) 0;
#X array teste 17713 float 2;
#X coords 0 1 17713 -1 200 140 1;
#X restore 180 220 graph;
#X msg 20 295 abrir;
#X obj 76 576 savepanel;
#X obj 76 621 soundfiler;
#X msg 76 597 write \$1 teste;
#X msg 76 518 salvar;
#X obj 76 549 bng 15 250 50 0 empty empty empty 17 7 0 10 -262144 -1
-1;
#X obj 20 323 bng 15 250 50 0 empty empty empty 17 7 0 10 -262144 -1
-1;
#X msg 20 386 read -resize -maxsize 1e+06 \$1 teste;
#N canvas 150 44 638 440 fluxo 0;
#N canvas 0 22 450 300 (subpatch) 0;
#X array fluxo 4100 float 0;
#X coords 0 1 4099 -1 300 200 1;
#X restore 286 48 graph;
#X obj 101 124 tgl 24 0 empty empty empty 0 -6 0 8 -241291 -1 -1 0
1;
#X obj 101 156 metro 110;
#X obj 75 129 bng 15 250 50 0 empty empty empty 0 -6 0 8 -241291 -1
-1;
#X obj 27 115 adc~;
#X obj 101 188 tabwrite~ fluxo;
#X connect 1 0 2 0;
#X connect 2 0 5 0;
#X connect 3 0 5 0;
#X connect 4 0 5 0;
#X connect 4 1 5 0;
#X restore 645 61 pd fluxo continuo;
#X text 16 265 ABRE UM ARQUIVO;
#X text 69 485 SALVA UM ARQUIVO;
#X msg 610 308 set teste;
#X obj 1003 167 vsl 15 128 0 5000 0 0 empty empty empty 0 -9 0 10 -262144
-1 -1 0 1;
#X connect 2 0 1 0;
#X connect 3 0 1 0;
#X connect 4 0 1 0;
#X connect 5 0 1 0;
#X connect 5 1 1 0;
#X connect 6 0 11 0;
#X connect 8 0 10 1;
#X connect 9 0 15 0;
#X connect 10 0 9 0;
#X connect 11 0 7 0;
#X connect 11 0 7 1;
#X connect 15 0 6 0;
#X connect 15 1 10 0;
#X connect 16 0 9 0;
#X connect 16 0 8 0;
#X connect 17 0 15 0;
#X connect 18 0 11 1;
#X connect 19 0 15 0;
#X connect 21 0 32 0;
#X connect 22 0 23 0;
#X connect 25 0 31 0;
#X connect 26 0 28 0;
#X connect 28 0 27 0;
#X connect 29 0 30 0;
#X connect 30 0 26 0;
#X connect 31 0 21 0;
#X connect 32 0 22 0;
#X connect 36 0 15 0;
#X connect 37 0 6 1;
#X restore 29 224 pd amostragem;
#N canvas 11 25 1132 665 filtros 0;
#X obj 16 -137 vcf~;
#X obj 16 -107 noise~;
#X obj 16 -77 env~;
#X text 116 -77 - envelope follower;
#X obj 16 -47 hip~;
#X obj 16 -17 lop~;
#X obj 16 13 bp~;
#X obj 16 43 biquad~;
#X obj 511 102 mtof;
#X floatatom 511 79 5 0 150 0 - - -;
#X obj 500 49 noise~;
#X floatatom 511 127 5 0 0 0 - - -;
#X obj 589 238 metro 250;
#X obj 589 218 tgl 15 0 empty empty empty 0 -6 0 8 -262144 -1 -1 0
1;
#X text 607 215 graphing on/off;
#N canvas 0 0 450 300 (subpatch) 0;
#X array H03-graph 882 float 2;
#X coords 0 1 882 -1 200 140 1;
#X restore 843 114 graph;
#X obj 500 185 bp~;
#X text 541 187 band-pass filter;
#X obj 589 263 tabwrite~ H03-graph;
#X floatatom 522 155 5 0 1000 0 - - -;
#X text 574 153 <-- q;
#X obj 500 306 dac~;
#X obj 501 260 *~;
#X obj 465 69 vsl 15 128 0 0.9 0 0 empty empty empty 0 -9 0 10 -262144
-1 -1 0 1;
#X text 494 -47 Os dois controles especificam \, primeiro \, a frequencia
central \, e segundo \, a "amplitude" de corte do filtro \, comumente
chamada "q". Se voce colocar o valor de q entre 10 ou 20 \, voce ouvira
mais claramente a frequencia central ressonando como resultado.;
#X text 566 48 ruido branco \, sinal de audio;
#X text 563 78 <-- frequencia central (valores MIDI de altura 0-127)
;
#X text 574 125 <-- frequencia central (Hertz);
#X text 116 -137 - filtro de voltagem controlada;
#X text 116 -107 - gerador de ruido branco;
#X text 116 -47 - filtro "passa-alta";
#X text 116 -17 - filtro "passa-baixa";
#X text 116 13 - filtro "passa-banda";
#X text 533 -183 FILTRO RESSONANTE "PASSA-BANDA" (BAND-PASS);
#X text 496 -146 Um simples filtro ressonante de "passa-banda" (band-pass)
e obtido pelo objeto bp~. Filtros ressonantes podem ser "afinados"
para uma especifica "frequencia central" e ira passar essa frequenci
para a saida enquanto atenua as outras frequencias (quanto mais distante
da frequencia central mais atenuada essa frequencia sera). Esse patch
usa um gerador de ruido branco para demonstrar bp~.;
#X text 116 43 - filtro "cru";
#X text 867 256;
#X connect 8 0 11 0;
#X connect 9 0 8 0;
#X connect 10 0 16 0;
#X connect 11 0 16 1;
#X connect 12 0 18 0;
#X connect 13 0 12 0;
#X connect 16 0 18 0;
#X connect 16 0 22 0;
#X connect 19 0 16 2;
#X connect 22 0 21 0;
#X connect 22 0 21 1;
#X connect 23 0 22 1;
#X restore 30 275 pd filtros;
#N canvas 0 79 1233 665 delay 0;
#X obj 8 -466 sig~;
#X floatatom 38 -184 0 0 0 0 - - -;
#X text 49 -127 signal output (delayed signal);
#X obj -31 -289 delwrite~ del_example 1000;
#X floatatom -31 -338 0 0 0 0 - - -;
#X obj 38 -62 snapshot~;
#X floatatom 38 -28 0 0 0 0 - - -;
#X obj -54 -191 loadbang;
#X obj -54 -124 metro 200;
#X msg -46 -164 \; pd dsp 1;
#X obj 38 -151 delread~ del_example 1000;
#X obj -31 -314 sig~;
#X obj 665 -475 adc~;
#X obj 504 -341 delwrite~ teste 3000;
#X obj 665 -248 dac~;
#X obj 877 -422 delread~ teste 3000;
#X msg 877 -450 0;
#X obj 923 -340 vd~ teste;
#X floatatom 923 -379 5 0 0 0 - - -;
#X obj 665 -300 *~;
#X obj 1006 -342 vd~ teste;
#X floatatom 1006 -378 5 0 0 0 - - -;
#X text 44 -464 - converte numeros para sinal de audio;
#X text -59 -425 Nesse exemplo \, o objeto sig~ converte numeros para
um sinal de audio \, que o objeto snapshot~ converte para numeros novamente.
;
#X text 10 -339 entrada para o delay;
#X text 73 -182 entrada de numeros (tempo de delay em milisegundos)
;
#X text 273 -161 argumento 1: nome da linha de delay;
#X text 273 -145 argumento 2: tempo (inicial) de delay em ms;
#X obj 705 -468 vsl 15 128 0 1 0 0 empty empty empty 0 -9 0 10 -262144
-1 -1 0 1;
#X text 918 -449 essa mensagem anula esse delay;
#X obj 886 -196 dac~;
#X obj 864 -234 *~;
#X obj 1078 -423 vsl 15 128 0 1 0 0 empty empty empty 0 -9 0 10 -262144
-1 -1 0 1;
#X obj 910 -235 *~;
#X obj 1106 -416 vsl 15 128 0 1 0 0 empty empty empty 0 -9 0 10 -262144
-1 -1 0 1;
#X text 633 -215 som direto;
#X text 878 -159 delay stereo;
#X connect 1 0 10 0;
#X connect 4 0 11 0;
#X connect 5 0 6 0;
#X connect 7 0 8 0;
#X connect 7 0 9 0;
#X connect 8 0 5 0;
#X connect 10 0 5 0;
#X connect 11 0 3 0;
#X connect 12 0 19 0;
#X connect 12 0 13 0;
#X connect 12 1 19 0;
#X connect 12 1 13 0;
#X connect 15 0 31 0;
#X connect 15 0 33 0;
#X connect 16 0 15 0;
#X connect 17 0 31 0;
#X connect 18 0 17 0;
#X connect 19 0 14 0;
#X connect 19 0 14 1;
#X connect 20 0 33 0;
#X connect 21 0 20 0;
#X connect 28 0 19 1;
#X connect 31 0 30 0;
#X connect 32 0 31 1;
#X connect 33 0 30 1;
#X connect 34 0 33 1;
#X restore 34 325 pd delay;
#N canvas 0 0 791 610 atividade 0;
#X text 23 70 Atividade 1: Construir um patch que controle uma serie
de amostras de som (partes da bateria) com o teclado do computador
;
#X text 28 157 Atividade 2: Contruir um sintetizador com diferentes
envelopes de vline~;
#X restore 226 146 pd atividade;
