#N canvas 287 25 491 435 16;
#X text 106 14 Aula 2;
#N canvas 186 33 838 526 teclado 0;
#X obj 132 -35 key;
#X floatatom 11 169 0 0 0 0 - - -;
#X obj 11 107 float;
#X floatatom 132 -4 5 0 0 0 - - -;
#X floatatom 73 169 0 0 0 0 - - -;
#X obj 73 107 float;
#X floatatom 158 130 0 0 0 0 - - -;
#X obj 228 271 osc~;
#X obj 227 331 dac~;
#X obj 11 143 + 2;
#X obj 367 186 vsl 15 60 0 0.06 0 0 empty empty empty 0 -9 0 10 -260818
-1 -1 5900 1;
#X obj 228 297 *~;
#X msg 228 77 60;
#X msg 267 100 64;
#X msg 304 112 67;
#X obj 228 155 mtof;
#X msg 447 100 1;
#X msg 486 103 0;
#X obj 25 59 select 9 113;
#X obj 228 48 select 119 101 114;
#X obj 447 37 select 116 121;
#X text 516 14 T Y;
#X text 281 30 W E R;
#X text 71 39 TAB Q;
#X obj 73 143 - 50;
#X connect 0 0 3 0;
#X connect 1 0 6 0;
#X connect 2 0 9 0;
#X connect 3 0 18 0;
#X connect 3 0 19 0;
#X connect 3 0 20 0;
#X connect 4 0 6 0;
#X connect 5 0 24 0;
#X connect 6 0 2 1;
#X connect 6 0 5 1;
#X connect 6 0 7 0;
#X connect 7 0 11 0;
#X connect 9 0 1 0;
#X connect 10 0 11 1;
#X connect 11 0 8 0;
#X connect 11 0 8 1;
#X connect 12 0 15 0;
#X connect 13 0 15 0;
#X connect 14 0 15 0;
#X connect 15 0 7 0;
#X connect 16 0 10 0;
#X connect 17 0 10 0;
#X connect 18 0 2 0;
#X connect 18 1 5 0;
#X connect 19 0 12 0;
#X connect 19 1 13 0;
#X connect 19 2 14 0;
#X connect 20 0 16 0;
#X connect 20 1 17 0;
#X connect 24 0 4 0;
#X restore 37 108 pd teclado;
#N canvas 0 0 801 519 audio 0;
#X obj 97 33 osc~ 440;
#X obj 96 134 dac~;
#X msg 98 317 \; pd dsp 1;
#X msg 202 317 \; pd dsp 0;
#X text 112 356 ON;
#X text 221 356 OFF;
#X text 88 8 Usando um oscilador;
#X text 169 31 <-- 440 Hz. onda senoidal;
#X text 185 54 <-- reduz a amplitude (volume) para 0.05;
#X text 154 192 <----- manda o audio para o hardware (placa de som)
;
#X text 32 273 O audio pode ser ligado e desligado mandando mensagens
para o objeto global "Pd" \, como segue:;
#X text 28 377 ---Experimente os atalhos: Ctrl + / (liga o audio);
#X text 220 397 Ctrl + . (desliga o audio);
#X text 55 446 Em geral quando voce iniciar um trabalho com Pd \,;
#X text 53 462 teste o audio usando o menu "media" e escolhendo:;
#X text 50 481 "test audio and MIDI";
#X msg 158 80 0;
#X msg 140 57 0.05;
#X text 196 78 <---- reduz a amplitude pra 0 (silencio);
#X obj 96 104 *~;
#X text 296 325 <-- clique aqui;
#X obj 585 23 key;
#X obj 584 79 select 10;
#X msg 172 143 0;
#X floatatom 584 50 5 0 0 0 - - -;
#X obj 234 144 bng 15 250 50 0 empty empty empty 17 7 0 10 -262144
-1 -1;
#X obj 584 105 bng 15 250 50 0 empty empty empty 17 7 0 10 -262144
-1 -1;
#X obj 584 139 send off;
#X obj 172 110 receive off;
#X obj 101 194 dac~;
#X connect 0 0 19 0;
#X connect 16 0 19 1;
#X connect 17 0 19 1;
#X connect 19 0 1 0;
#X connect 21 0 24 0;
#X connect 22 0 26 0;
#X connect 23 0 19 1;
#X connect 24 0 22 0;
#X connect 26 0 27 0;
#X connect 28 0 23 0;
#X restore 36 66 pd audio;
#N canvas 67 0 565 661 midi 0;
#X floatatom 322 452 0 0 0 0 - - -;
#X floatatom 286 541 0 0 0 0 - - -;
#X floatatom 204 542 0 0 0 0 - - -;
#X text 72 367 off;
#X floatatom 51 421 0 0 0 0 - - -;
#X floatatom 70 134 0 0 0 0 - - -;
#X obj 34 108 notein;
#X floatatom 34 134 0 0 0 0 - - -;
#X obj 51 447 metro 500;
#X msg 51 394 1;
#X msg 83 394 0;
#X text 40 367 on;
#X msg 51 474 60;
#X obj 204 569 pgmout;
#X obj 286 567 bendout;
#X floatatom 420 452 0 0 0 0 - - -;
#X floatatom 197 136 0 0 0 0 - - -;
#X floatatom 145 136 0 0 0 0 - - -;
#X text 41 79 omni;
#X floatatom 106 134 0 0 0 0 - - -;
#X obj 145 109 notein 1;
#X floatatom 309 137 0 0 0 0 - - -;
#X floatatom 271 137 0 0 0 0 - - -;
#X floatatom 347 136 0 0 0 0 - - -;
#X obj 271 110 ctlin;
#X floatatom 440 138 0 0 0 0 - - -;
#X floatatom 396 138 0 0 0 0 - - -;
#X obj 396 111 ctlin 7;
#X text 410 88 omni;
#X text 496 89 channel 1;
#X floatatom 493 140 0 0 0 0 - - -;
#X obj 493 114 ctlin 7 1;
#X obj 77 241 pgmin;
#X floatatom 113 268 0 0 0 0 - - -;
#X floatatom 77 268 0 0 0 0 - - -;
#X floatatom 213 270 0 0 0 0 - - -;
#X floatatom 177 270 0 0 0 0 - - -;
#X floatatom 323 273 0 0 0 0 - - -;
#X floatatom 288 273 0 0 0 0 - - -;
#X floatatom 398 272 0 0 0 0 - - -;
#X floatatom 359 270 0 0 0 0 - - -;
#X floatatom 436 273 0 0 0 0 - - -;
#X obj 177 242 bendin;
#X obj 288 246 touchin;
#X obj 359 244 polytouchin;
#X text 171 218 pitch bend;
#X floatatom 195 453 0 0 0 0 - - -;
#X floatatom 228 453 0 0 0 0 - - -;
#X floatatom 264 455 0 0 0 0 - - -;
#X obj 195 480 ctlout;
#X obj 322 479 ctlout 7;
#X text 318 426 control 7;
#X obj 420 479 ctlout 7 4;
#X floatatom 359 540 0 0 0 0 - - -;
#X floatatom 444 539 0 0 0 0 - - -;
#X obj 359 566 touchout;
#X obj 444 565 polytouchout;
#X floatatom 483 540 0 0 0 0 - - -;
#X floatatom 524 540 0 0 0 0 - - -;
#X obj 625 218 midiin;
#X floatatom 625 249 0 0 0 0 - - -;
#X floatatom 656 249 0 0 0 0 - - -;
#X floatatom 695 249 0 0 0 0 - - -;
#X floatatom 726 250 0 0 0 0 - - -;
#X obj 697 218 sysexin;
#X obj 659 626 midiout;
#X text 300 8 (In/Out);
#X text 98 49 notas;
#X text 312 37 troca de controle;
#X text 145 85 canal 1;
#X text 264 69 tudo;
#X text 384 63 numero especifico de controladores;
#X text 49 167 pode-se escolher o numero de um canal especifico como
argumento mas como padrao se usa omni ("global"):;
#X text 591 139 Esses dois sao sempre omni (globais) e;
#X text 593 161 mandam para a saida o numero da porta ao inves;
#X text 590 174 comment;
#X text 591 110 comment;
#X text 594 181 do numero do canal:;
#X text 37 212 troca de programa;
#X text 287 223 canal e poly aftertouch;
#X text 148 313 saidas funcionam similarmente. Todos aceitam um canal
opcional como argumento de criacao \, e ctlin aceita um numero de controle
e um canal. Voce tem entradas para muda-las em qualquer caso. SE voce
nao especificar nenhum canal \, sera canal 1 \, voce tem entradas para
muda-los em qualquer caso;
#X text 174 423 controle de saida;
#X text 413 427 control 7 \, canal 4;
#X text 607 567 use este objeto para mandar dados MIDI "crus";
#X text 602 587 (o segundo "inlet" e o numero;
#X text 605 605 da porta.);
#X floatatom 754 428 0 0 0 0 - - -;
#X floatatom 700 394 0 0 0 0 - - -;
#X msg 654 355 60;
#X obj 647 490 print x1;
#X obj 754 505 print x2;
#X floatatom 647 332 0 0 0 0 - - -;
#X msg 654 381 60.5;
#X obj 647 463 makenote 3.2 500;
#X text 686 333 numeros a esquerda sao "pitches" que podem ser integrais
ou nao.;
#X text 734 392 "velocity" (dinamica);
#X text 792 426 duracao em millisegundos;
#X text 781 457 argumentos de criacao inicializam "velocity" e duracao
;
#X text 177 10 MIDI I/O objetos;
#X obj 19 507 bng 15 250 50 0 empty empty empty 17 7 0 10 -262144 -1
-1;
#X obj 60 569 noteout 1;
#X obj 51 500 makenote 64 250;
#X connect 0 0 50 0;
#X connect 1 0 14 0;
#X connect 2 0 13 0;
#X connect 4 0 8 0;
#X connect 6 0 7 0;
#X connect 6 1 5 0;
#X connect 6 2 19 0;
#X connect 8 0 12 0;
#X connect 8 0 99 0;
#X connect 9 0 4 0;
#X connect 10 0 4 0;
#X connect 12 0 101 0;
#X connect 15 0 52 0;
#X connect 20 0 17 0;
#X connect 20 1 16 0;
#X connect 24 0 22 0;
#X connect 24 1 21 0;
#X connect 24 2 23 0;
#X connect 27 0 26 0;
#X connect 27 1 25 0;
#X connect 31 0 30 0;
#X connect 32 0 34 0;
#X connect 32 1 33 0;
#X connect 42 0 36 0;
#X connect 42 1 35 0;
#X connect 43 0 38 0;
#X connect 43 1 37 0;
#X connect 44 0 40 0;
#X connect 44 1 39 0;
#X connect 44 2 41 0;
#X connect 46 0 49 0;
#X connect 47 0 49 1;
#X connect 48 0 49 2;
#X connect 53 0 55 0;
#X connect 54 0 56 0;
#X connect 57 0 56 1;
#X connect 58 0 56 2;
#X connect 59 0 60 0;
#X connect 59 1 61 0;
#X connect 64 0 62 0;
#X connect 86 0 93 2;
#X connect 87 0 93 1;
#X connect 88 0 93 0;
#X connect 91 0 93 0;
#X connect 92 0 93 0;
#X connect 93 0 89 0;
#X connect 93 1 90 0;
#X connect 101 0 100 0;
#X connect 101 1 100 1;
#X restore 39 193 pd midi;
#N canvas 81 18 920 533 envelopes 0;
#X obj 135 32 key;
#X floatatom 17 264 0 0 0 0 - - -;
#X obj 17 202 float;
#X floatatom 135 67 5 0 0 0 - - -;
#X floatatom 65 264 0 0 0 0 - - -;
#X obj 65 202 float;
#X floatatom 150 225 0 0 0 0 - - -;
#X obj 205 388 osc~;
#X obj 204 448 dac~;
#X obj 17 238 + 2;
#X obj 65 238 - 2;
#X obj 386 344 vsl 15 60 0 1 0 0 empty empty empty 0 -9 0 10 -260818
-1 -1 0 1;
#X obj 205 414 *~;
#X obj 220 144 select 99 100 101;
#X obj 487 59 select 51 52 53 54 55;
#X msg 553 201 1 \, 0.2 1000;
#X msg 609 142 0 \, 0.7 10000;
#X msg 499 257 0 \, 1 5000;
#X msg 524 226 1 \, 0 1000;
#X obj 17 154 select 97 98;
#X obj 387 148 select 49 50;
#X obj 499 322 line;
#X msg 387 182 1;
#X msg 426 185 0;
#X msg 205 178 60;
#X msg 243 188 64;
#X msg 281 195 67;
#X obj 205 247 mtof;
#X obj 726 228 mtof;
#X msg 759 262 0.9 \, 0 100;
#X obj 726 313 send osc;
#X obj 759 288 send line;
#X obj 228 295 receive osc;
#X obj 532 285 receive line;
#X floatatom 236 336 5 0 0 0 - - -;
#X floatatom 545 338 5 0 0 0 - - -;
#X msg 726 159 61;
#X msg 759 169 65;
#X msg 792 176 68;
#X obj 726 115 select 56 57 48;
#X text 63 132 A B;
#X text 271 120 C D E;
#X text 434 123 1 2;
#X text 544 29 3 4 5 6 7;
#X text 778 95 8 9 0;
#X text 13 295 varia a frequencia;
#X text 265 241 toca do-mi-sol;
#X text 389 217 liga e desliga;
#X msg 581 172 0.9 \, 0 50;
#X obj 309 419 * 0.2;
#X connect 0 0 3 0;
#X connect 1 0 6 0;
#X connect 2 0 9 0;
#X connect 3 0 13 0;
#X connect 3 0 14 0;
#X connect 3 0 19 0;
#X connect 3 0 20 0;
#X connect 3 0 39 0;
#X connect 4 0 6 0;
#X connect 5 0 10 0;
#X connect 6 0 2 1;
#X connect 6 0 5 1;
#X connect 6 0 7 0;
#X connect 7 0 12 0;
#X connect 9 0 1 0;
#X connect 10 0 4 0;
#X connect 11 0 49 0;
#X connect 12 0 8 0;
#X connect 12 0 8 1;
#X connect 13 0 24 0;
#X connect 13 1 25 0;
#X connect 13 2 26 0;
#X connect 14 0 17 0;
#X connect 14 1 18 0;
#X connect 14 2 15 0;
#X connect 14 3 48 0;
#X connect 14 4 16 0;
#X connect 15 0 21 0;
#X connect 16 0 21 0;
#X connect 17 0 21 0;
#X connect 18 0 21 0;
#X connect 19 0 2 0;
#X connect 19 1 5 0;
#X connect 20 0 22 0;
#X connect 20 1 23 0;
#X connect 21 0 11 0;
#X connect 22 0 11 0;
#X connect 23 0 11 0;
#X connect 24 0 27 0;
#X connect 25 0 27 0;
#X connect 26 0 27 0;
#X connect 27 0 7 0;
#X connect 28 0 30 0;
#X connect 29 0 31 0;
#X connect 32 0 7 0;
#X connect 32 0 34 0;
#X connect 33 0 21 0;
#X connect 33 0 35 0;
#X connect 36 0 28 0;
#X connect 36 0 29 0;
#X connect 37 0 28 0;
#X connect 37 0 29 0;
#X connect 38 0 28 0;
#X connect 38 0 29 0;
#X connect 39 0 36 0;
#X connect 39 1 37 0;
#X connect 39 2 38 0;
#X connect 48 0 21 0;
#X connect 49 0 12 1;
#X restore 36 151 pd envelopes;
#N canvas 141 13 796 631 notas 0;
#X floatatom 132 55 5 0 0 2 andamento - -;
#X floatatom 187 72 5 0 0 2 fundamental - -;
#X floatatom 289 258 5 0 0 0 - - -;
#X floatatom 357 259 5 0 0 0 - - -;
#X obj 88 299 bng 30 250 50 0 empty empty empty 17 7 0 10 -262144 -1
-1;
#X obj 152 298 bng 30 250 50 0 empty empty empty 17 7 0 10 -262144
-1 -1;
#X obj 34 300 bng 30 250 50 0 empty empty empty 17 7 0 10 -262144 -1
-1;
#X obj 32 210 bng 15 250 50 0 empty empty empty 17 7 0 10 -262144 -1
-1;
#X obj 32 237 delay;
#X obj 106 210 bng 15 250 50 0 empty empty empty 17 7 0 10 -262144
-1 -1;
#X obj 106 234 delay;
#X obj 180 208 bng 15 250 50 0 empty empty empty 17 7 0 10 -262144
-1 -1;
#X obj 180 234 delay;
#X obj 265 482 osc~;
#X obj 131 480 line;
#X obj 265 523 *~;
#X obj 265 576 dac~;
#X obj 265 545 *~ 0.2;
#X msg 553 357 \; pd dsp 1;
#X obj 6 40 tgl 30 0 empty empty empty 17 7 0 10 -259851 -1 -1 0 1
;
#X obj 6 123 metro;
#X floatatom 43 71 5 0 0 0 - - -;
#X msg 6 146 bang;
#X obj 9 181 bng 15 250 50 0 empty empty empty 17 7 0 10 -262144 -1
-1;
#X obj 42 95 * 200;
#X obj 62 200 * 1;
#X obj 136 204 * 3;
#X obj 209 198 * 5;
#X text 44 27 esse numero;
#X text 42 41 e de 0 a 10;
#X text 467 12 transformar os valores de fundamental;
#X text 467 33 para valores midi;
#X text 485 102 Aqui botar tb linha do tempo;
#X text 486 130 e envelopes agendados;
#X text 488 162 outros agendamentos em geral;
#X obj 299 151 + 4;
#X obj 364 150 + 7;
#X obj 257 443 mtof;
#X msg -16 376 0.6 100;
#X msg 127 418 0 50;
#X obj 125 383 delay 120;
#X connect 0 0 25 0;
#X connect 0 0 26 0;
#X connect 0 0 27 0;
#X connect 1 0 35 0;
#X connect 1 0 36 0;
#X connect 1 0 37 0;
#X connect 2 0 37 0;
#X connect 3 0 37 0;
#X connect 7 0 8 0;
#X connect 8 0 38 0;
#X connect 8 0 40 0;
#X connect 8 0 6 0;
#X connect 8 0 1 0;
#X connect 9 0 10 0;
#X connect 10 0 40 0;
#X connect 10 0 4 0;
#X connect 10 0 38 0;
#X connect 10 0 2 0;
#X connect 11 0 12 0;
#X connect 12 0 40 0;
#X connect 12 0 5 0;
#X connect 12 0 38 0;
#X connect 12 0 3 0;
#X connect 13 0 15 0;
#X connect 14 0 15 1;
#X connect 15 0 17 0;
#X connect 17 0 16 0;
#X connect 17 0 16 1;
#X connect 19 0 20 0;
#X connect 20 0 22 0;
#X connect 21 0 24 0;
#X connect 22 0 23 0;
#X connect 23 0 7 0;
#X connect 23 0 9 0;
#X connect 23 0 11 0;
#X connect 24 0 20 1;
#X connect 25 0 8 1;
#X connect 26 0 10 1;
#X connect 27 0 12 1;
#X connect 35 0 2 0;
#X connect 36 0 3 0;
#X connect 37 0 13 0;
#X connect 38 0 14 0;
#X connect 39 0 14 0;
#X connect 40 0 39 0;
#X restore 39 240 pd notas e eventos;
#N canvas 107 25 760 540 array 0;
#N canvas 0 0 450 300 (subpatch) 0;
#X array array1 16 float 1;
#A 0 56.9495 56.0423 13.407 -27.4141 56.9495 59.6709 58.7637 60.578
58.7637 101.399 54.2281 58.7637 60.578 59.6709 59.6709 57.8566;
#X coords 0 127 15 0 200 140 1;
#X restore 419 74 graph;
#X obj 27 76 tgl 15 0 empty empty empty 0 -6 0 8 -262144 -1 -1 127
127;
#X obj 27 102 metro 250;
#X obj 27 134 f;
#X obj 79 134 + 1;
#X obj 27 168 % 16;
#X obj 175 102 vsl 15 128 75 500 0 0 empty empty empty 0 -8 0 8 -262144
-1 -1 0 1;
#X obj 26 17 key;
#X obj 26 48 select 97;
#X obj 28 239 float;
#X floatatom 27 208 5 0 0 0 - - -;
#X obj 27 279 tabread array1;
#X floatatom 27 316 5 0 0 0 - - -;
#X obj 27 352 mtof;
#X obj 28 401 osc~;
#X obj 27 461 dac~;
#X obj 147 333 vsl 15 60 0 1 0 0 empty empty empty 0 -9 0 10 -260818
-1 -1 0 1;
#X obj 28 427 *~;
#N canvas 0 0 450 300 (subpatch) 0;
#X array TESTE 8 float 1;
#A 0 -0.0999993 -0.371427 -0.428569 -0.399998 -0.199999 1.84285 -0.528569
-0.371426;
#X coords 0 1 7 -1 200 140 1;
#X restore 375 287 graph;
#X connect 1 0 2 0;
#X connect 2 0 3 0;
#X connect 3 0 4 0;
#X connect 3 0 5 0;
#X connect 4 0 3 1;
#X connect 5 0 10 0;
#X connect 6 0 2 1;
#X connect 7 0 8 0;
#X connect 8 0 1 0;
#X connect 9 0 11 0;
#X connect 10 0 9 0;
#X connect 11 0 12 0;
#X connect 12 0 13 0;
#X connect 13 0 14 0;
#X connect 14 0 17 0;
#X connect 16 0 17 1;
#X connect 17 0 15 0;
#X connect 17 0 15 1;
#X restore 39 291 pd array;
#X text 107 63 <--------- off: enter;
#X text 120 109 <--------off: Y;
#X text 134 151 <--------- off: 2;
#N canvas 97 49 835 427 rosegardem 0;
#X obj 70 258 noteout 1;
#X obj 61 189 makenote 64 250;
#X obj 16 136 random 127;
#X obj 135 134 random 127;
#X obj 439 42 notein;
#X floatatom 412 118 5 0 0 0 - - -;
#X floatatom 467 119 5 0 0 0 - - -;
#X floatatom 539 125 5 0 0 0 - - -;
#X obj 439 205 osc~;
#X obj 440 262 *~;
#X obj 502 237 line;
#X obj 604 228 delay;
#X msg 502 208 \$1 100;
#X msg 604 254 0 100;
#X obj 439 305 dac~;
#X obj 467 80 / 127;
#X obj 135 80 metro 1000;
#X obj 268 190 send dur;
#X obj 538 71 receive dur;
#X obj 502 166 t b f;
#X obj 439 170 mtof;
#X obj 232 49 random 1000;
#X obj 135 24 tgl 15 0 empty empty empty 17 7 0 10 -262144 -1 -1 0
1;
#X obj 269 130 random 500;
#X text 57 325 escreve no rosegardem;
#X text 427 342 recebe do rosegardem;
#X obj 289 284 makenote;
#X connect 1 0 0 0;
#X connect 1 1 0 1;
#X connect 2 0 1 0;
#X connect 3 0 1 1;
#X connect 4 0 5 0;
#X connect 4 1 15 0;
#X connect 5 0 20 0;
#X connect 6 0 19 0;
#X connect 7 0 11 1;
#X connect 8 0 9 0;
#X connect 9 0 14 0;
#X connect 9 0 14 1;
#X connect 10 0 9 1;
#X connect 11 0 13 0;
#X connect 12 0 10 0;
#X connect 13 0 10 0;
#X connect 15 0 6 0;
#X connect 16 0 2 0;
#X connect 16 0 3 0;
#X connect 16 0 23 0;
#X connect 18 0 7 0;
#X connect 19 0 11 0;
#X connect 19 1 12 0;
#X connect 20 0 8 0;
#X connect 21 0 16 1;
#X connect 22 0 16 0;
#X connect 22 0 21 0;
#X connect 23 0 1 2;
#X connect 23 0 17 0;
#X restore 227 191 pd rosegardem;
#X text 114 192 --------------->;
