#N canvas 324 105 466 316 10;
#X floatatom 4 15 0 0 0 0 - - -;
#X msg -50 -65 bang;
#X obj 4 -10 + 1;
#X msg -11 -64 stop;
#X obj -50 -10 float;
#X obj -51 -141 key;
#X floatatom -50 -118 5 0 0 0 - - -;
#X obj -50 -96 select 10 32;
#X msg 38 -66 0;
#X msg -113 11 \; pd dsp 1;
#X msg 82 -71 \; pd dsp 0;
#X obj 4 42 outlet;
#N canvas 0 22 450 300 (subpatch) 0;
#X coords 0 1 40 -1 110 35 1;
#X restore 5 -146 graph;
#X text 7 -144 enter= da capo backspace= pára;
#X obj 126 -7 outlet;
#X obj -50 -36 metro 1000;
#X connect 0 0 11 0;
#X connect 1 0 15 0;
#X connect 2 0 0 0;
#X connect 2 0 4 1;
#X connect 3 0 15 0;
#X connect 3 0 15 0;
#X connect 4 0 2 0;
#X connect 5 0 6 0;
#X connect 6 0 7 0;
#X connect 7 0 1 0;
#X connect 7 0 8 0;
#X connect 7 0 9 0;
#X connect 7 1 3 0;
#X connect 7 1 10 0;
#X connect 8 0 4 1;
#X connect 10 0 14 0;
#X connect 15 0 4 0;
#X coords 0 1 40 -1 110 35 1 0 0;
