#N canvas 661 143 259 313 10;
#X obj 5 15 bng 15 250 50 0 empty empty empty 0 -6 0 8 -262144 -1 -1
;
#X floatatom 16 142 0 0 0 0 - - -;
#X obj 17 116 + 1;
#X obj 6 75 float;
#X obj 16 169 sel 1;
#X msg 67 64 0;
#X obj 5 -29 inlet;
#X floatatom 50 13 5 0 0 0 - - -;
#N canvas 0 22 450 300 (subpatch) 0;
#X coords 0 1 100 -1 90 30 1;
#X restore 2 6 graph;
#X obj 16 202 outlet;
#X obj 5 42 delay 21000;
#X connect 0 0 5 0;
#X connect 0 0 10 0;
#X connect 1 0 4 0;
#X connect 2 0 1 0;
#X connect 2 0 3 1;
#X connect 3 0 2 0;
#X connect 4 0 9 0;
#X connect 5 0 3 1;
#X connect 6 0 0 0;
#X connect 7 0 10 1;
#X connect 10 0 3 0;
#X coords 0 1 1 -1 90 30 1 0 0;
