#N canvas 385 24 729 624 24;
#X obj 373 531 gemwin;
#X msg 407 304 create;
#X msg 438 341 destroy;
#X msg 526 468 1;
#X msg 453 465 0;
#X text 129 14 R G B: Red Green Blue (0 - 255);
#X text 474 429 renderização;
#X msg 456 380 dimen 300 400;
#X obj 45 49 gemhead;
#X msg 94 443 draw line;
#X msg 108 488 draw fill;
#X floatatom 180 547 5 0 0 0 - - -;
#X obj 52 355 rotateXYZ;
#X floatatom 77 304 5 0 0 0 - - -;
#X floatatom 162 299 5 0 0 0 - - -;
#X floatatom 254 300 5 0 0 0 - - -;
#X obj 45 28 tgl 15 0 empty empty empty 17 7 0 10 -262144 -1 -1 0 1
;
#X obj 54 243 translateXYZ;
#X floatatom 109 148 5 0 0 0 - - -;
#X floatatom 137 187 5 0 0 0 - - -;
#X floatatom 217 192 5 0 0 0 - - -;
#X obj 35 602 cylinder;
#X text 340 80 Open GL;
#X floatatom 264 558 5 0 0 0 - - -;
#N canvas 421 24 535 626 automa 0;
#X obj 44 -3 metro 500;
#X text 126 -44 emite "bangs" a cada x mseg.;
#X text 185 3 = 120 bpm;
#X obj 44 -79 tgl 15 0 empty empty empty 17 7 0 10 -262144 -1 -1 1
1;
#X obj 44 64 bng 15 250 50 0 empty empty empty 17 7 0 10 -262144 -1
-1;
#X floatatom 45 151 5 0 0 0 - - -;
#N canvas 0 0 450 300 (subpatch) 0;
#X array array1 8 float 3;
#A 0 0.257142 0.314285 0.242857 -0.114285 -0.371428 -0.785712 -1.01428
0.52857;
#X coords 0 1 8 -1 200 140 1;
#X restore 300 206 graph;
#X obj 44 226 tabread array1;
#X floatatom 44 270 7 0 0 0 - - -;
#X obj 44 98 counter 7;
#X obj 44 312 * 2;
#X floatatom 43 454 5 0 0 0 - - -;
#X obj 42 506 send eixox;
#X obj 42 404 line;
#X msg 44 357 \$1 400;
#X connect 0 0 4 0;
#X connect 3 0 0 0;
#X connect 4 0 9 0;
#X connect 5 0 7 0;
#X connect 7 0 8 0;
#X connect 8 0 10 0;
#X connect 9 0 5 0;
#X connect 10 0 14 0;
#X connect 11 0 12 0;
#X connect 13 0 11 0;
#X connect 14 0 13 0;
#X restore 473 47 pd automa;
#X obj 108 98 r eixox;
#X obj 376 224 pack f f f;
#X msg 376 265 color \$1 \$2 \$3;
#X floatatom 519 146 5 0 0 0 - - -;
#X floatatom 440 148 5 0 0 0 - - -;
#X floatatom 353 145 5 0 0 0 - - -;
#X obj 388 200 bng 15 250 50 0 empty empty empty 17 7 0 10 -262144
-1 -1;
#X connect 1 0 0 0;
#X connect 2 0 0 0;
#X connect 3 0 0 0;
#X connect 4 0 0 0;
#X connect 7 0 0 0;
#X connect 8 0 17 0;
#X connect 9 0 21 0;
#X connect 10 0 21 0;
#X connect 11 0 21 1;
#X connect 12 0 21 0;
#X connect 13 0 12 1;
#X connect 14 0 12 2;
#X connect 15 0 12 3;
#X connect 16 0 8 0;
#X connect 17 0 12 0;
#X connect 18 0 17 1;
#X connect 19 0 17 2;
#X connect 20 0 17 3;
#X connect 23 0 21 2;
#X connect 25 0 18 0;
#X connect 26 0 27 0;
#X connect 27 0 0 0;
#X connect 28 0 26 2;
#X connect 28 0 31 0;
#X connect 29 0 26 1;
#X connect 29 0 31 0;
#X connect 30 0 26 0;
#X connect 31 0 26 0;
