#N canvas 145 100 950 665 10;
#X obj 16 93 soundfiler;
#N canvas 0 22 450 300 (subpatch) 0;
#X array sample 44100 float 2;
#X coords 0 1 44100 -1 200 140 1;
#X restore 162 25 graph;
#X floatatom 16 121 5 0 0 0 - - -;
#X obj 19 546 soundfiler;
#N canvas 0 22 450 300 (subpatch) 0;
#X array sample4 441000 float 2;
#X coords 0 1 441000 -1 200 140 1;
#X restore 165 501 graph;
#X floatatom 19 572 5 0 0 0 - - -;
#X obj 21 376 soundfiler;
#N canvas 0 22 450 300 (subpatch) 0;
#X array sample2 1.1025e+06 float 2;
#X coords 0 1 1.1025e+06 -1 200 140 1;
#X restore 168 342 graph;
#X floatatom 21 409 20 0 0 0 - - -;
#X msg 21 345 read 3.wav sample2;
#X msg 16 62 read 1.wav sample;
#X msg 19 521 read 4.wav sample4;
#X obj 20 230 soundfiler;
#N canvas 0 22 450 300 (subpatch) 0;
#X array sample1 44100 float 2;
#X coords 0 1 44100 -1 200 140 1;
#X restore 166 185 graph;
#X floatatom 20 260 5 0 0 0 - - -;
#X msg 20 195 read 2.wav sample1;
#X obj 417 288 hip~ 5;
#X obj 417 221 line~;
#X floatatom 417 143 0 0 100 0 - - -;
#X obj 417 319 dac~;
#X msg 409 575 \; pd dsp 1;
#X text 408 345 scratch simples;
#X obj 601 204 hip~ 5;
#X obj 601 260 dac~;
#X obj 769 145 tgl 15 0 empty empty empty 17 7 0 10 -262144 -1 -1 0
1;
#X obj 601 141 bng 15 250 50 0 empty empty empty 17 7 0 10 -262144
-1 -1;
#X obj 732 169 spigot;
#X obj 417 256 tabread4~ sample4;
#X text 649 255 loop simples;
#X obj 593 358 pow 0.1;
#X floatatom 593 382 5 0 0 0 - - -;
#X obj 593 403 sig~;
#X obj 593 427 phasor~;
#X obj 593 451 *~;
#X obj 16 146 s \$1 rate;
#X obj 699 360 r \$1 rate;
#X obj 593 548 dac~;
#X text 638 543 looping com phasor;
#X text 542 381 ----->;
#X text 395 447 altera o pitch do sampler;
#X obj 601 171 tabplay~ sample2;
#X obj 593 332 / 44100;
#X obj 593 476 tabread4~ sample1;
#X obj 417 172 * 441;
#X obj 417 196 pack 0 100;
#X obj 601 232 *~;
#X obj 699 219 hsl 128 15 0 1 0 0 empty empty empty -2 -8 0 10 -262144
-1 -1 0 1;
#X obj 687 499 hsl 128 15 0 1 0 0 empty empty empty -2 -8 0 10 -262144
-1 -1 0 1;
#X obj 593 516 *~;
#X obj 369 11 inlet;
#X obj 487 6 inlet;
#X obj 570 6 inlet;
#X obj 369 35 s \$2 sampscratch;
#X obj 417 114 r \$2 sampscratch;
#X obj 487 37 s \$3 loopin;
#X obj 570 36 s \$4 loopenv;
#X obj 661 5 inlet;
#X obj 661 39 s \$5 pitchloop2;
#X obj 777 4 inlet;
#X obj 778 39 s \$6 loop2env;
#X obj 601 114 r \$3 loopin;
#X obj 696 193 r \$4 loopenv;
#X obj 551 299 r \$5 pitchloop2;
#X obj 752 471 r \$6 loop2env;
#X obj 386 387 writesf~;
#X msg 384 477 bang;
#X msg 471 509 start;
#X msg 473 535 stop;
#X msg 451 410 open foo.wav;
#X obj 384 508 del 10000;
#X connect 0 0 2 0;
#X connect 2 0 34 0;
#X connect 3 0 5 0;
#X connect 6 0 8 0;
#X connect 9 0 6 0;
#X connect 10 0 0 0;
#X connect 11 0 3 0;
#X connect 12 0 14 0;
#X connect 15 0 12 0;
#X connect 16 0 19 0;
#X connect 16 0 19 1;
#X connect 16 0 64 0;
#X connect 17 0 27 0;
#X connect 18 0 43 0;
#X connect 22 0 45 0;
#X connect 24 0 26 1;
#X connect 25 0 40 0;
#X connect 26 0 25 0;
#X connect 27 0 16 0;
#X connect 29 0 30 0;
#X connect 30 0 31 0;
#X connect 31 0 32 0;
#X connect 32 0 33 0;
#X connect 33 0 42 0;
#X connect 35 0 33 1;
#X connect 35 0 41 0;
#X connect 40 0 22 0;
#X connect 40 1 26 0;
#X connect 41 0 29 0;
#X connect 42 0 48 0;
#X connect 43 0 44 0;
#X connect 44 0 17 0;
#X connect 45 0 23 0;
#X connect 45 0 23 1;
#X connect 46 0 45 1;
#X connect 47 0 48 1;
#X connect 48 0 36 0;
#X connect 48 0 36 1;
#X connect 49 0 52 0;
#X connect 50 0 54 0;
#X connect 51 0 55 0;
#X connect 53 0 18 0;
#X connect 56 0 57 0;
#X connect 58 0 59 0;
#X connect 60 0 25 0;
#X connect 60 0 24 0;
#X connect 61 0 46 0;
#X connect 62 0 30 0;
#X connect 63 0 47 0;
#X connect 65 0 66 0;
#X connect 65 0 69 0;
#X connect 66 0 64 0;
#X connect 67 0 64 0;
#X connect 68 0 64 0;
#X connect 69 0 67 0;
