#N canvas 561 24 590 649 24;
#X obj 238 593 gemwin;
#X msg 179 415 create \, 1;
#X msg 242 462 0 \, destroy;
#X obj 27 8 gemmouse;
#X floatatom 27 199 5 0 0 0 - - -;
#X floatatom 54 157 5 0 0 0 - - -;
#X floatatom 83 119 5 0 0 0 - - -;
#X floatatom 108 84 5 0 0 0 - - -;
#X floatatom 136 50 5 0 0 0 - - -;
#X text 105 197 posição X;
#X text 136 160 posição Y;
#X text 165 125 botão esquerdo;
#X text 211 57 botão direito;
#X text 183 88 "scroll";
#X obj -41 364 gemhead;
#X obj -23 568 sphere 0.1;
#X obj -24 482 translateXYZ;
#X obj 65 345 scale.linear 0 500 -4 4;
#X obj 89 290 scale.linear 0 500 4 -4;
#X msg 262 524 buffer 1;
#X obj -38 264 bng 15 250 50 0 empty empty empty 17 7 0 10 -262144
-1 -1;
#X obj 178 541 bng 15 250 50 0 empty empty empty 17 7 0 10 -262144
-1 -1;
#X obj -41 309 spigot;
#X text 149 552 reset;
#X connect 1 0 0 0;
#X connect 2 0 0 0;
#X connect 3 0 4 0;
#X connect 3 1 5 0;
#X connect 3 2 6 0;
#X connect 3 3 7 0;
#X connect 3 4 8 0;
#X connect 4 0 17 0;
#X connect 4 0 20 0;
#X connect 5 0 18 0;
#X connect 5 0 20 0;
#X connect 6 0 22 1;
#X connect 8 0 21 0;
#X connect 14 0 16 0;
#X connect 16 0 15 0;
#X connect 17 0 16 1;
#X connect 18 0 16 2;
#X connect 19 0 0 0;
#X connect 20 0 22 0;
#X connect 21 0 0 0;
#X connect 22 0 14 0;
