#N canvas 529 24 533 634 24;
#X obj 283 519 gemwin;
#X msg 337 346 0 \, destroy;
#X msg 305 292 create \, 1;
#X obj 78 461 sphere 0.1;
#X obj 78 268 gemhead;
#X obj 78 349 translateXYZ;
#X obj 136 21 hsl 128 15 -4 4 0 0 empty empty empty -2 -8 0 10 -262144
-1 -1 3400 1;
#X obj 256 52 vsl 15 128 -4 4 0 0 empty empty empty 0 -9 0 10 -262144
-1 -1 5400 1;
#X msg 282 246 dimen 400 400;
#X msg 336 446 buffer 1;
#X obj 78 243 bng 15 250 50 0 empty empty empty 17 7 0 10 -262144 -1
-1;
#X text 94 569 lembrar do buffer;
#X connect 1 0 0 0;
#X connect 2 0 0 0;
#X connect 4 0 5 0;
#X connect 5 0 3 0;
#X connect 6 0 5 1;
#X connect 6 0 10 0;
#X connect 7 0 5 2;
#X connect 7 0 10 0;
#X connect 8 0 0 0;
#X connect 9 0 0 0;
#X connect 10 0 4 0;
