#N canvas 540 24 614 651 24;
#X obj 290 138 gemwin;
#X msg 284 12 create \, 1;
#X msg 338 57 0 \, destroy;
#X obj 26 8 gemhead;
#X obj 26 115 pix_video;
#X obj 26 461 pix_texture;
#X obj 26 619 rectangle 4 3;
#X obj 26 548 rotateXYZ;
#X floatatom 165 499 5 0 0 0 - - -;
#X floatatom 66 499 5 0 0 0 - - -;
#X floatatom 271 496 5 0 0 0 - - -;
#X obj 26 253 pix_gain;
#X obj 43 198 hsl 128 10 -4 10 0 0 empty empty empty -2 -8 0 10 -262144
-1 -1 5300 1;
#X text 146 168 -4 a 10;
#X obj 224 284 pack f f f;
#X floatatom 215 199 5 0 0 0 - - -;
#X floatatom 309 199 5 0 0 0 - - -;
#X floatatom 389 202 5 0 0 0 - - -;
#X obj 238 257 bng 15 250 50 0 empty empty empty 17 7 0 10 -262144
-1 -1;
#X obj 25 327 pix_motionblur;
#X obj 250 342 hsl 128 15 0 1 0 0 empty empty empty -2 -8 0 10 -262144
-1 -1 100 1;
#X obj 26 416 pix_kaleidoscope;
#X floatatom 56 373 5 0 0 0 - - -;
#X connect 1 0 0 0;
#X connect 2 0 0 0;
#X connect 3 0 4 0;
#X connect 4 0 11 0;
#X connect 5 0 7 0;
#X connect 7 0 6 0;
#X connect 8 0 7 2;
#X connect 9 0 7 1;
#X connect 10 0 7 3;
#X connect 11 0 19 0;
#X connect 12 0 11 1;
#X connect 14 0 11 2;
#X connect 15 0 14 0;
#X connect 16 0 14 1;
#X connect 16 0 18 0;
#X connect 17 0 14 2;
#X connect 17 0 18 0;
#X connect 18 0 14 0;
#X connect 19 0 21 0;
#X connect 20 0 19 1;
#X connect 21 0 5 0;
#X connect 22 0 21 1;
