#N canvas 561 24 590 649 24;
#X obj 289 574 gemwin;
#X msg 289 440 create \, 1;
#X msg 306 497 0 \, destroy;
#X obj 27 8 gemmouse;
#X floatatom 32 237 5 0 0 0 - - -;
#X floatatom 56 194 5 0 0 0 - - -;
#X floatatom 80 153 5 0 0 0 - - -;
#X floatatom 111 113 5 0 0 0 - - -;
#X floatatom 138 64 5 0 0 0 - - -;
#X text 118 237 posição X;
#X text 138 197 posição Y;
#X text 164 158 botão esquerdo;
#X text 213 71 botão direito;
#X text 186 117 "scroll";
#X obj -46 361 gemhead;
#X obj 37 575 sphere 0.1;
#X obj 36 489 translateXYZ;
#X obj 94 395 hsl 128 15 -4 4 0 0 empty empty empty -2 -8 0 10 -262144
-1 -1 1900 1;
#X text 105 408 -4 a 4;
#X obj 63 327 scale.linear 0 500 -4 4;
#X connect 1 0 0 0;
#X connect 2 0 0 0;
#X connect 3 0 4 0;
#X connect 3 1 5 0;
#X connect 3 2 6 0;
#X connect 3 3 7 0;
#X connect 3 4 8 0;
#X connect 4 0 19 0;
#X connect 14 0 16 0;
#X connect 16 0 15 0;
#X connect 17 0 16 1;
#X connect 19 0 17 0;
