#N canvas 84 24 864 317 24;
#N canvas 575 100 462 495 meu 1;
#X obj 283 271 osc~;
#X obj 244 347 *~;
#X obj 245 429 dac~;
#X floatatom 283 219 5 0 0 0 - - -;
#X obj 103 256 hsl 128 15 0 1 0 0 empty empty empty -2 -8 0 10 -262144
-1 -1 0 1;
#X obj 104 145 nbx 3 14 -1e+37 1e+37 0 0 empty empty freq 0 -20 1 30
-262144 -1 -1 0 256;
#X obj 103 187 hsl 115 30 0 1 0 0 empty empty volume -2 -8 0 10 -261234
-1 -1 0 1;
#X connect 0 0 1 1;
#X connect 1 0 2 0;
#X connect 1 0 2 1;
#X connect 3 0 0 0;
#X connect 4 0 1 0;
#X connect 5 0 3 0;
#X connect 6 0 4 0;
#X coords 0 -1 1 1 120 120 2 100 100;
#X restore 65 103 pd meu programa;
#N canvas 411 70 590 447 meu 0;
#X obj 291 234 osc~;
#X obj 293 329 *~;
#X obj 294 411 dac~;
#X floatatom 291 182 5 0 0 0 - - -;
#X obj 378 279 hsl 128 15 0 1 0 0 empty empty empty -2 -8 0 10 -262144
-1 -1 0 1;
#X obj 104 145 nbx 3 14 -1e+37 1e+37 0 0 empty empty freq 0 -20 1 30
-262144 -1 -1 0 256;
#X obj 103 187 hsl 115 30 0 1 0 0 empty empty volume -2 -8 0 10 -261234
-1 -1 0 1;
#X connect 0 0 1 0;
#X connect 1 0 2 0;
#X connect 1 0 2 1;
#X connect 3 0 0 0;
#X connect 4 0 1 1;
#X connect 5 0 3 0;
#X connect 6 0 4 0;
#X coords 0 -1 1 1 120 120 2 100 100;
#X restore 267 108 pd meu programa;
#N canvas 411 70 590 447 meu 0;
#X obj 291 234 osc~;
#X obj 293 329 *~;
#X obj 294 411 dac~;
#X floatatom 291 182 5 0 0 0 - - -;
#X obj 378 279 hsl 128 15 0 1 0 0 empty empty empty -2 -8 0 10 -262144
-1 -1 0 1;
#X obj 104 145 nbx 3 14 -1e+37 1e+37 0 0 empty empty freq 0 -20 1 30
-262144 -1 -1 0 256;
#X obj 103 187 hsl 115 30 0 1 0 0 empty empty volume -2 -8 0 10 -261234
-1 -1 0 1;
#X connect 0 0 1 0;
#X connect 1 0 2 0;
#X connect 1 0 2 1;
#X connect 3 0 0 0;
#X connect 4 0 1 1;
#X connect 5 0 3 0;
#X connect 6 0 4 0;
#X coords 0 -1 1 1 120 120 2 100 100;
#X restore 447 111 pd meu programa;
#N canvas 411 70 590 447 meu 0;
#X obj 291 234 osc~;
#X obj 293 329 *~;
#X obj 294 411 dac~;
#X floatatom 291 182 5 0 0 0 - - -;
#X obj 378 279 hsl 128 15 0 1 0 0 empty empty empty -2 -8 0 10 -262144
-1 -1 0 1;
#X obj 104 145 nbx 3 14 -1e+37 1e+37 0 0 empty empty freq 0 -20 1 30
-262144 -1 -1 0 256;
#X obj 103 187 hsl 115 30 0 1 0 0 empty empty volume -2 -8 0 10 -261234
-1 -1 0 1;
#X connect 0 0 1 0;
#X connect 1 0 2 0;
#X connect 1 0 2 1;
#X connect 3 0 0 0;
#X connect 4 0 1 1;
#X connect 5 0 3 0;
#X connect 6 0 4 0;
#X coords 0 -1 1 1 120 120 2 100 100;
#X restore 633 109 pd meu programa;
