#N canvas 459 70 430 392 10;
#N canvas 531 71 450 300 nome 0;
#X obj 113 155 hsl 100 20 0 127 0 0 empty empty empty -2 -8 0 10 -258113
-1 -1 0 1;
#X obj 56 45 inlet;
#X obj 55 271 outlet;
#X connect 0 0 2 0;
#X connect 1 0 0 0;
#X coords 0 -1 1 1 120 120 2 100 100;
#X restore 63 158 pd nome;
#X obj 66 311 hsl 128 15 0 127 0 0 empty empty empty -2 -8 0 10 -262144
-1 -1 0 1;
#X obj 66 120 hsl 128 15 0 127 0 0 empty empty empty -2 -8 0 10 -262144
-1 -1 0 1;
#X connect 0 0 1 0;
#X connect 2 0 0 0;
